<?xml version="1.0" encoding="iso-8859-1"?>
<!-- Generator: Adobe Illustrator 19.1.0, SVG Export Plug-In . SVG Version: 6.00 Build 0)  -->
<svg version="1.1" id="Capa_1" xmlns="http://www.w3.org/2000/svg" xmlns:xlink="http://www.w3.org/1999/xlink" x="0px" y="0px"
	 viewBox="0 0 64.5 64.5" style="enable-background:new 0 0 64.5 64.5;" xml:space="preserve">
<g>
	<g id="group-4svg">
		<path id="path-1_32_" style="fill:#EDC951;" d="M64.5,34.853c0,16.371-13.274,29.643-29.648,29.643
			c-16.373,0-29.647-13.272-29.647-29.643c0-16.372,13.274-29.644,29.647-29.644C51.226,5.209,64.5,18.481,64.5,34.853z"/>
		<path id="path-2_32_" style="fill:#8B71B5;" d="M50.098,41.768c0,6.999-5.393,10.999-12.047,10.999h-6.023
			c-6.652,0-12.045-4-12.045-10.999H50.098z"/>
		<path id="path-3_32_" d="M34.346,51.767h-6.023c-7.47,0-13.547-5.607-13.547-12.499c0-0.828,0.672-1.5,1.5-1.5h30.116
			c0.828,0,1.5,0.672,1.5,1.5C47.892,46.16,41.815,51.767,34.346,51.767z M17.908,40.768c0.801,4.528,5.166,7.999,10.415,7.999
			h6.023c5.248,0,9.614-3.471,10.414-7.999H17.908z"/>
		<path id="path-4_32_" d="M44.997,22.985c0,1.98-1.605,3.586-3.586,3.586c-1.981,0-3.587-1.606-3.587-3.586
			c0-1.981,1.606-3.586,3.587-3.586C43.392,19.399,44.997,21.004,44.997,22.985z"/>
		<path id="path-5_32_" d="M24.376,22.985c0,1.98-1.606,3.586-3.586,3.586c-1.981,0-3.587-1.606-3.587-3.586
			c0-1.981,1.606-3.586,3.587-3.586C22.77,19.399,24.376,21.004,24.376,22.985z"/>
		<path id="path-6_27_" d="M31.147,62.29C13.972,62.29,0,48.319,0,31.147S13.972,0.004,31.147,0.004
			c17.174,0,31.147,13.971,31.147,31.143S48.321,62.29,31.147,62.29z M31.147,3.004C15.626,3.004,3,15.629,3,31.147
			c0,15.519,12.626,28.144,28.147,28.144c15.52,0,28.147-12.625,28.147-28.144C59.294,15.629,46.667,3.004,31.147,3.004z"/>
	</g>
</g>
<g>
</g>
<g>
</g>
<g>
</g>
<g>
</g>
<g>
</g>
<g>
</g>
<g>
</g>
<g>
</g>
<g>
</g>
<g>
</g>
<g>
</g>
<g>
</g>
<g>
</g>
<g>
</g>
<g>
</g>
</svg>
