<?xml version="1.0" encoding="iso-8859-1"?>
<!-- Generator: Adobe Illustrator 19.1.0, SVG Export Plug-In . SVG Version: 6.00 Build 0)  -->
<svg version="1.1" id="Capa_1" xmlns="http://www.w3.org/2000/svg" xmlns:xlink="http://www.w3.org/1999/xlink" x="0px" y="0px"
	 viewBox="0 0 67.321 67.321" style="enable-background:new 0 0 67.321 67.321;" xml:space="preserve">
<g>
	<g id="group-20svg">
		<path id="path-1_11_" style="fill:#EDC951;" d="M67.321,35.82c0,16.616-13.472,30.086-30.09,30.086S7.141,52.436,7.141,35.82
			S20.613,5.734,37.231,5.734S67.321,19.204,67.321,35.82z"/>
		<path id="path-2_11_" style="fill:#8B71B5;" d="M23.85,41.507c0,6.026,4.886,10.737,10.914,10.737h5.456
			c6.026,0,10.912-4.737,10.912-10.763L23.85,41.507z"/>
		<path id="path-3_11_" d="M17.282,29.238c-0.592,0-1.152-0.352-1.39-0.934c-0.313-0.767,0.055-1.642,0.823-1.955l4.555-1.858
			l-4.603-2.563c-0.724-0.402-0.985-1.316-0.581-2.039c0.403-0.725,1.317-0.986,2.04-0.581l7.334,4.082
			c0.504,0.28,0.803,0.825,0.767,1.4c-0.034,0.576-0.396,1.081-0.93,1.299l-7.45,3.038C17.662,29.202,17.471,29.238,17.282,29.238z"
			/>
		<path id="path-4_11_" d="M45.354,29.974c-0.231,0-0.466-0.053-0.685-0.166l-7.335-3.774c-0.491-0.253-0.805-0.756-0.814-1.309
			c-0.008-0.553,0.287-1.066,0.771-1.335l7.335-4.082c0.723-0.405,1.637-0.144,2.04,0.581c0.403,0.723,0.142,1.637-0.581,2.039
			l-4.887,2.72l4.844,2.492c0.736,0.38,1.026,1.284,0.647,2.02C46.423,29.678,45.898,29.974,45.354,29.974z"/>
		<path id="path-5_11_" d="M34.578,50.244h-5.457c-6.96,0-12.412-5.226-12.412-11.897c0-0.824,0.665-1.494,1.489-1.5l27.281-0.195
			c0.385-0.005,0.784,0.153,1.068,0.435c0.284,0.282,0.443,0.665,0.443,1.065C46.99,44.933,41.538,50.244,34.578,50.244z
			 M19.829,39.835c0.706,4.314,4.465,7.41,9.292,7.41h5.457c4.744,0,8.563-3.226,9.288-7.582L19.829,39.835z"/>
		<path id="path-6_8_" d="M31.59,64.586C14.171,64.586,0,50.416,0,33C0,15.583,14.171,1.414,31.59,1.414
			c17.418,0,31.589,14.169,31.589,31.585C63.179,50.416,49.008,64.586,31.59,64.586z M31.59,4.413C15.825,4.413,3,17.237,3,33
			c0,15.763,12.825,28.587,28.59,28.587c15.763,0,28.589-12.824,28.589-28.587C60.179,17.237,47.353,4.413,31.59,4.413z"/>
	</g>
</g>
<g>
</g>
<g>
</g>
<g>
</g>
<g>
</g>
<g>
</g>
<g>
</g>
<g>
</g>
<g>
</g>
<g>
</g>
<g>
</g>
<g>
</g>
<g>
</g>
<g>
</g>
<g>
</g>
<g>
</g>
</svg>
